<mxfile host="app.diagrams.net" modified="2023-07-09T21:02:36.612Z" agent="Mozilla/5.0 (Windows NT 10.0; Win64; x64; rv:108.0) Gecko/20100101 Firefox/108.0" version="21.6.1" etag="3dSmHcLStNYdvIcDpxsl" type="github">
  <diagram name="PÃ¡gina-1" id="okfdQuJbPyo85tIB42WC">
    <mxGraphModel>
      <root>
        <mxCell id="0" />
        <mxCell id="1" parent="0" />
      </root>
    </mxGraphModel>
  </diagram>
</mxfile>
